<svg viewBox="0 0 20 33" class="icon">
<g>
	<path id="XMLID_348_" class="st0" d="M10.8,0c0,0,0,0.1,0.1,0.1c1.5,3.1,3.1,6.1,4.7,9.1c1.1,2,2.2,4,3.4,5.9
		c0.3,0.4,0.5,0.8,0.8,1.2c0,0,0,0.1,0.1,0.1c-0.1,0.1-0.2,0.2-0.2,0.2c-0.8,0.8-1.6,1.7-2.4,2.6c-0.8,1-1.6,2.1-2.2,3.3
		c-0.6,1.4-1,2.9-1,4.4c0,0.1,0,0.2,0,0.3c-2.8,0-5.5,0-8.3,0c0-0.1,0-0.3,0-0.5c-0.1-2.1-0.7-4-1.9-5.8c-0.6-0.9-1.3-1.8-2-2.6
		c-0.6-0.6-1.2-1.3-1.8-1.9c0,0-0.1-0.1-0.1-0.1c0.2-0.3,0.3-0.5,0.5-0.8c1-1.6,2-3.2,2.9-4.9C5.3,7.3,7.2,3.7,8.9,0.1
		C9,0.1,9,0.1,9,0c0,0.1,0,0.1,0,0.1c0,4.3,0,8.5,0,12.8c0,0.1,0,0.1-0.1,0.2c-0.8,0.3-1.3,1.6-0.7,2.7c0.6,0.9,1.9,1.2,2.7,0.6
		c0.9-0.6,1.1-1.9,0.4-2.8c-0.1-0.2-0.3-0.3-0.5-0.4c-0.1,0-0.1-0.1-0.1-0.2c0-1.8,0-3.6,0-5.4c0-2.5,0-4.9,0-7.4
		C10.8,0.1,10.8,0.1,10.8,0C10.8,0,10.8,0,10.8,0z"/>
	<polygon points="4,31 15.9,31.1 17,33 2.7,33"/>
</g>
</svg>
